<svg viewBox="0 0 137 32" fill="none" xmlns="http://www.w3.org/2000/svg">
<g clip-path="url(#clip0_223_485)">
<path d="M124.79 7.74831H126.389V11.1273H127.782V7.74831H129.382V6.49683H124.79V7.74831Z" fill="#F2845C"/>
<path d="M134.214 6.49683L133.392 9.24466C133.349 9.40245 133.283 9.73437 133.283 9.89217C133.283 9.97923 133.262 10.0717 133.131 10.0717C133 10.0717 132.973 9.98467 132.973 9.89217C132.973 9.73437 132.93 9.40245 132.886 9.24466L132.043 6.49683H129.801V11.1219H131.199V8.79848C131.199 8.51009 131.069 7.94964 130.976 7.74831C130.911 7.66125 130.976 7.56875 131.063 7.54699C131.15 7.52522 131.216 7.59052 131.243 7.66125L132.282 11.1273H133.969L135.036 7.66125C135.057 7.59596 135.123 7.52522 135.215 7.54699C135.302 7.56875 135.346 7.66125 135.302 7.74831C135.215 7.94964 135.057 8.51009 135.057 8.79848V11.1219H136.477V6.49683H134.214Z" fill="#F2845C"/>
<path d="M0 11.1165H14.6533C15.7579 11.1165 16.6557 12.0143 16.6557 13.1189V25.4923H22.5703V13.0373C22.5703 9.43514 19.6484 6.50775 16.0408 6.50775H0V11.1165Z" fill="#F2845C"/>
<path d="M13.935 20.8835H7.91702C6.81245 20.8835 5.91464 19.9857 5.91464 18.8811V14.6696H0V18.9628C0 22.5649 2.92195 25.4923 6.5295 25.4923H12.3081L13.9405 20.8835H13.935Z" fill="#F2845C"/>
<path d="M33.0012 11.1165H37.3977L39.0301 6.50774H31.532C27.9408 6.50774 25.0243 9.41881 25.0243 13.0155V18.9791C25.0243 22.5758 27.9408 25.4923 31.5375 25.4923H47.6V0H41.6854V20.8835H33.0229C31.8748 20.8835 30.9389 19.9531 30.9389 18.7995V13.1842C30.9389 12.0415 31.8639 11.1165 33.0066 11.1165H33.0012Z" fill="#F2845C"/>
<path d="M89.6447 20.8835H85.2481L83.6157 25.4923H91.1138C94.705 25.4923 97.6215 22.5812 97.6215 18.9845V13.0209C97.6215 9.42426 94.705 6.50775 91.1084 6.50775H75.0458V32H80.9604V11.1165H89.6229C90.771 11.1165 91.7069 12.0469 91.7069 13.2005V18.8159C91.7069 19.9585 90.7819 20.8835 89.6392 20.8835H89.6447Z" fill="#F2845C"/>
<path d="M106.502 11.1165H122.613V6.50776H106.502V1.62695H100.587V18.9737C100.587 22.5703 103.503 25.4923 107.106 25.4923H116.105C119.702 25.4923 122.619 22.5758 122.619 18.9791V14.6696H116.704V18.7995C116.704 19.9476 115.773 20.8835 114.62 20.8835H108.586C107.437 20.8835 106.502 19.9531 106.502 18.7995V11.1165Z" fill="#F2845C"/>
<path d="M64.8107 11.1165L62.1445 18.4187H68.0592L72.4122 6.50775L64.8107 11.1165Z" fill="#F2845C"/>
<path d="M72.4122 20.8835H57.8351C56.687 20.8835 55.7511 19.9531 55.7511 18.7995V13.1842C55.7511 12.0415 56.6761 11.1165 57.8187 11.1165H70.2357L72.4122 6.50775H56.3442C52.7529 6.50775 49.8364 9.41882 49.8364 13.0155V18.9791C49.8364 22.5758 52.7529 25.4923 56.3496 25.4923H72.4122V20.8835Z" fill="#F2845C"/>
</g>
<defs>
<clipPath id="clip0_223_485">
<rect width="136.477" height="32" fill="white"/>
</clipPath>
</defs>
</svg>
