<svg id="Logo" xmlns="http://www.w3.org/2000/svg" viewBox="7 10 40 40" height="256" width="256">
   <g transform="matrix(1.3333333,0,0,-1.3333333,0,73.04)" id="g10">
   <g transform="scale(0.1)" id="g12">
       <path id="path52" style="fill:#f4701b;fill-opacity:1;fill-rule:nonzero;stroke:none"
             d="m 243.445,235.383 h -96.797 c -13.652,0 -25.562,13.387 -25.562,28.621 v 3.098 c 0,19.511 0.328,24.746 19.527,30.058 -0.293,-0.07 1.098,0.195 1.098,0.195 14.004,2.817 91.719,18.676 127.32,26.375 v -59.726 c 0,-15.234 -12.011,-28.621 -25.586,-28.621 z m 84.106,-20.332 c 0,-0.031 -6.699,15.047 -12.192,27.578 1.821,6.707 2.832,13.887 2.832,21.375 v 16.562 c -0.054,-0.066 0,112.207 0,112.207 v 0 c 0,41.243 -33.535,74.766 -74.746,74.766 h -83.457 c -29.746,0 -56.621,-17.539 -68.4528,-44.617 0,-0.07 -0.254,-0.606 -0.254,-0.606 -0.4921,-1.128 -0.7031,-2.261 -0.7031,-3.468 0,-1.231 0.2696,-2.461 0.7422,-3.66 0.9375,-2.278 2.7735,-4.024 5.0781,-4.934 l 1.1328,-0.391 -0.371,0.117 28.5158,-9.91 c 2.222,-0.84 4.785,-0.754 7.051,0.235 2.285,1.047 3.961,2.832 4.878,5.195 l -0.195,-0.371 c 4.16,8.359 12.754,16.836 22.578,16.836 h 83.457 c 14.653,0 25.586,-15.422 25.586,-29.192 V 371.848 C 235.383,364.727 127.527,341.828 127.527,341.828 93.7031,332.461 73.0938,324.027 73.0938,269.547 v -5.543 c 0,-42.617 31.6402,-74.707 73.5542,-74.707 h 98.086 c 17.993,0 34.18,5.949 46.661,16.133 7.343,-11.817 7.46,-12.032 7.558,-12.149 1.176,-1.933 3.344,-3.476 5.781,-3.867 2.485,-0.457 5.039,0.188 7.012,1.758 0.063,0 9.184,8.379 9.184,8.379 l 4.004,3.691 c 3.574,3.067 4.586,7.461 2.617,11.809" />
             </g></g></svg>